<svg xmlns="http://www.w3.org/2000/svg" xmlns:xlink="http://www.w3.org/1999/xlink" width="80" zoomAndPan="magnify" viewBox="0 0 60 60" height="80" preserveAspectRatio="xMidYMid meet" version="1.0"><defs><clipPath id="822a3d8294"><path d="M 3.015625 5.378906 L 57 5.378906 L 57 54.878906 L 3.015625 54.878906 Z M 3.015625 5.378906 " clip-rule="nonzero"/></clipPath></defs><rect x="-6" width="72" fill="#ffffff" y="-6" height="72" fill-opacity="1"/><rect x="-6" width="72" fill="#ffffff" y="-6" height="72" fill-opacity="1"/><g clip-path="url(#822a3d8294)"><path fill="#7f6392" d="M 56.792969 27.253906 L 45.761719 8.132812 C 45.671875 7.980469 45.542969 7.84375 45.378906 7.753906 L 41.523438 5.523438 C 41.367188 5.433594 41.1875 5.386719 41.007812 5.386719 L 18.929688 5.386719 C 18.746094 5.386719 18.566406 5.433594 18.410156 5.523438 L 14.554688 7.753906 C 14.398438 7.84375 14.261719 7.972656 14.171875 8.132812 L 3.140625 27.253906 C 3.050781 27.40625 3.003906 27.589844 3.003906 27.769531 L 3.003906 32.222656 C 3.003906 32.402344 3.050781 32.585938 3.140625 32.738281 L 14.179688 51.855469 C 14.269531 52.011719 14.398438 52.148438 14.5625 52.238281 L 18.417969 54.46875 C 18.570312 54.558594 18.753906 54.605469 18.933594 54.605469 L 41.007812 54.605469 C 41.1875 54.605469 41.367188 54.558594 41.523438 54.46875 L 45.378906 52.238281 C 45.535156 52.148438 45.671875 52.019531 45.761719 51.855469 L 56.800781 32.738281 C 56.890625 32.585938 56.9375 32.402344 56.9375 32.222656 L 56.9375 27.769531 C 56.9375 27.589844 56.886719 27.414062 56.792969 27.253906 Z M 54.855469 31.949219 L 44.101562 50.582031 L 40.726562 52.53125 L 19.207031 52.53125 L 15.832031 50.582031 L 5.078125 31.949219 L 5.078125 28.054688 L 15.835938 9.417969 L 19.214844 7.46875 L 40.734375 7.46875 L 44.109375 9.417969 L 54.871094 28.054688 L 54.871094 31.949219 Z M 41.785156 23.0625 L 39.90625 23.0625 L 39.90625 17.847656 C 39.90625 17.277344 39.4375 16.808594 38.867188 16.808594 L 31.015625 16.808594 L 31.015625 14.714844 C 32.28125 14.28125 33.195312 13.085938 33.195312 11.679688 C 33.195312 9.902344 31.75 8.464844 29.980469 8.464844 C 28.203125 8.464844 26.765625 9.910156 26.765625 11.679688 C 26.765625 13.089844 27.679688 14.28125 28.945312 14.714844 L 28.945312 16.808594 L 21.066406 16.808594 C 20.496094 16.808594 20.03125 17.277344 20.03125 17.847656 L 20.03125 23.0625 L 18 23.0625 C 17.566406 21.796875 16.367188 20.882812 14.964844 20.882812 C 13.1875 20.882812 11.75 22.328125 11.75 24.097656 C 11.75 25.871094 13.195312 27.3125 14.964844 27.3125 C 16.375 27.3125 17.566406 26.398438 18 25.132812 L 20.03125 25.132812 L 20.03125 33.945312 L 18 33.945312 C 17.566406 32.679688 16.367188 31.769531 14.964844 31.769531 C 13.1875 31.769531 11.75 33.210938 11.75 34.980469 C 11.75 36.757812 13.195312 38.195312 14.964844 38.195312 C 16.375 38.195312 17.566406 37.28125 18 36.019531 L 20.03125 36.019531 L 20.03125 42.152344 C 20.03125 42.722656 20.496094 43.1875 21.066406 43.1875 L 28.929688 43.1875 L 28.929688 45.46875 C 27.667969 45.902344 26.753906 47.101562 26.753906 48.507812 C 26.753906 50.28125 28.199219 51.722656 29.96875 51.722656 C 31.742188 51.722656 33.179688 50.277344 33.179688 48.507812 C 33.179688 47.09375 32.265625 45.902344 31.003906 45.46875 L 31.003906 43.1875 L 38.867188 43.1875 C 39.4375 43.1875 39.90625 42.722656 39.90625 42.152344 L 39.90625 36.023438 L 41.785156 36.023438 C 42.21875 37.289062 43.417969 38.199219 44.820312 38.199219 C 46.597656 38.199219 48.035156 36.757812 48.035156 34.988281 C 48.035156 33.210938 46.589844 31.773438 44.820312 31.773438 C 43.410156 31.773438 42.21875 32.6875 41.785156 33.949219 L 39.90625 33.949219 L 39.90625 25.140625 L 41.785156 25.140625 C 42.21875 26.402344 43.417969 27.316406 44.820312 27.316406 C 46.597656 27.316406 48.035156 25.871094 48.035156 24.105469 C 48.035156 22.328125 46.589844 20.890625 44.820312 20.890625 C 43.417969 20.882812 42.21875 21.796875 41.785156 23.0625 Z M 29.980469 10.539062 C 30.609375 10.539062 31.121094 11.050781 31.121094 11.679688 C 31.121094 12.308594 30.609375 12.820312 29.980469 12.820312 C 29.351562 12.820312 28.839844 12.308594 28.839844 11.679688 C 28.839844 11.050781 29.351562 10.539062 29.980469 10.539062 Z M 13.816406 24.097656 C 13.816406 23.46875 14.328125 22.957031 14.957031 22.957031 C 15.585938 22.957031 16.097656 23.46875 16.097656 24.097656 C 16.097656 24.726562 15.585938 25.238281 14.957031 25.238281 C 14.328125 25.238281 13.816406 24.726562 13.816406 24.097656 Z M 13.816406 34.988281 C 13.816406 34.359375 14.328125 33.847656 14.957031 33.847656 C 15.585938 33.847656 16.097656 34.359375 16.097656 34.988281 C 16.097656 35.617188 15.585938 36.128906 14.957031 36.128906 C 14.328125 36.128906 13.816406 35.617188 13.816406 34.988281 Z M 29.96875 49.648438 C 29.339844 49.648438 28.828125 49.136719 28.828125 48.507812 C 28.828125 47.878906 29.339844 47.367188 29.96875 47.367188 C 30.59375 47.367188 31.105469 47.878906 31.105469 48.507812 C 31.105469 49.136719 30.59375 49.648438 29.96875 49.648438 Z M 45.960938 34.988281 C 45.960938 35.617188 45.449219 36.128906 44.820312 36.128906 C 44.195312 36.128906 43.683594 35.617188 43.683594 34.988281 C 43.683594 34.359375 44.195312 33.847656 44.820312 33.847656 C 45.449219 33.847656 45.960938 34.351562 45.960938 34.988281 Z M 37.832031 34.988281 L 37.832031 41.121094 L 22.101562 41.121094 L 22.101562 18.882812 L 37.839844 18.882812 L 37.839844 34.988281 Z M 45.960938 24.097656 C 45.960938 24.726562 45.449219 25.238281 44.820312 25.238281 C 44.195312 25.238281 43.683594 24.726562 43.683594 24.097656 C 43.683594 23.46875 44.195312 22.957031 44.820312 22.957031 C 45.449219 22.957031 45.960938 23.46875 45.960938 24.097656 Z M 24.257812 24.828125 C 23.851562 24.429688 23.851562 23.765625 24.257812 23.367188 L 25.847656 21.777344 C 26.253906 21.371094 26.910156 21.371094 27.3125 21.777344 C 27.71875 22.1875 27.71875 22.839844 27.3125 23.242188 L 26.460938 24.089844 L 27.3125 24.945312 C 27.71875 25.347656 27.71875 26.007812 27.3125 26.410156 C 27.109375 26.609375 26.84375 26.714844 26.578125 26.714844 C 26.3125 26.714844 26.046875 26.609375 25.847656 26.410156 Z M 35.578125 23.367188 C 35.984375 23.765625 35.984375 24.429688 35.578125 24.828125 L 33.992188 26.417969 C 33.789062 26.617188 33.523438 26.722656 33.257812 26.722656 C 32.992188 26.722656 32.726562 26.617188 32.527344 26.417969 C 32.117188 26.015625 32.117188 25.355469 32.527344 24.953125 L 33.382812 24.097656 L 32.527344 23.25 C 32.117188 22.847656 32.117188 22.1875 32.527344 21.785156 C 32.933594 21.375 33.589844 21.375 33.988281 21.785156 Z M 28.453125 26.953125 L 29.34375 20.921875 C 29.429688 20.359375 29.953125 19.964844 30.523438 20.046875 C 31.089844 20.132812 31.484375 20.65625 31.398438 21.226562 L 30.503906 27.257812 C 30.425781 27.777344 29.988281 28.144531 29.480469 28.144531 C 29.429688 28.144531 29.378906 28.140625 29.324219 28.132812 C 28.753906 28.050781 28.367188 27.523438 28.453125 26.953125 Z M 35.882812 30.503906 C 35.882812 31.074219 35.414062 31.542969 34.84375 31.542969 L 27.125 31.542969 C 26.554688 31.542969 26.085938 31.074219 26.085938 30.503906 C 26.085938 29.933594 26.554688 29.46875 27.125 29.46875 L 34.851562 29.46875 C 35.421875 29.46875 35.882812 29.929688 35.882812 30.503906 Z M 35.882812 34.082031 C 35.882812 34.652344 35.414062 35.117188 34.84375 35.117188 L 24.941406 35.117188 C 24.371094 35.117188 23.902344 34.652344 23.902344 34.082031 C 23.902344 33.511719 24.371094 33.042969 24.941406 33.042969 L 34.84375 33.042969 C 35.421875 33.042969 35.882812 33.511719 35.882812 34.082031 Z M 33.582031 37.65625 C 33.582031 38.226562 33.117188 38.691406 32.546875 38.691406 L 24.941406 38.691406 C 24.371094 38.691406 23.902344 38.226562 23.902344 37.65625 C 23.902344 37.085938 24.371094 36.621094 24.941406 36.621094 L 32.546875 36.621094 C 33.121094 36.621094 33.582031 37.085938 33.582031 37.65625 Z M 33.582031 37.65625 " fill-opacity="1" fill-rule="nonzero"/></g></svg>